<?xml version="1.0" encoding="UTF-8"?>
<svg version="1.1" xmlns="http://www.w3.org/2000/svg" width="42" height="38">
<path d="M0 0 C2.00793366 4.42852536 1.90897129 7.6717135 1.49609375 12.4375 C1.43518555 13.60925781 1.43518555 13.60925781 1.37304688 14.8046875 C1.0362603 19.6251989 0.20279863 23.27414857 -2.44140625 27.4375 C-8.49150275 31.42798918 -14.50385918 30.76577551 -21.44140625 29.4375 C-24.66047917 28.46397153 -27.73345762 27.46363734 -30.44140625 25.4375 C-31.93548932 20.89382462 -31.70319967 16.17011457 -31.75390625 11.4375 C-31.78291016 10.53515625 -31.81191406 9.6328125 -31.84179688 8.703125 C-31.90562128 2.06538672 -31.90562128 2.06538672 -29.546875 -1.125 C-25.69910455 -3.75204921 -22.30276959 -3.94236722 -17.75390625 -4.25 C-16.71073242 -4.33991211 -16.71073242 -4.33991211 -15.64648438 -4.43164062 C-9.55117677 -4.84710043 -4.44736628 -4.66795564 0 0 Z " fill="#134DEA" transform="translate(36.44140625,5.5625)"/>
<path d="M0 0 C4.62 0 9.24 0 14 0 C14 5 14 5 12.75 6.8125 C11 8 11 8 7 8 C7 8.66 7 9.32 7 10 C7.763125 9.773125 8.52625 9.54625 9.3125 9.3125 C10.199375 9.209375 11.08625 9.10625 12 9 C13.8125 10.4375 13.8125 10.4375 15 12 C12 13 12 13 9 13 C9 14.32 9 15.64 9 17 C9.99 17.33 10.98 17.66 12 18 C12 17.34 12 16.68 12 16 C11.34 16 10.68 16 10 16 C10 15.34 10 14.68 10 14 C11.65 14 13.3 14 15 14 C14.67 16.64 14.34 19.28 14 22 C13.030625 22.12375 12.06125 22.2475 11.0625 22.375 C10.051875 22.58125 9.04125 22.7875 8 23 C7.67 23.66 7.34 24.32 7 25 C7.66 25 8.32 25 9 25 C8 28 8 28 5 30 C3 29.6875 3 29.6875 1 29 C0.01 28.67 -0.98 28.34 -2 28 C-4.15159508 24.77260738 -4.24840937 23.90082021 -4.23046875 20.18359375 C-4.22853516 19.25482422 -4.22660156 18.32605469 -4.22460938 17.36914062 C-4.21236328 16.40169922 -4.20011719 15.43425781 -4.1875 14.4375 C-4.18685547 13.46619141 -4.18621094 12.49488281 -4.18554688 11.49414062 C-4.14043257 4.28086515 -4.14043257 4.28086515 -3 2 C-2.01 2 -1.02 2 0 2 C0 1.34 0 0.68 0 0 Z " fill="#1655F1" transform="translate(11,3)"/>
<path d="M0 0 C2.60296033 4.83406918 2.23592782 10.02486607 2.125 15.375 C2.11597656 16.20644531 2.10695313 17.03789062 2.09765625 17.89453125 C2.0742622 19.92981337 2.03839725 21.96494564 2 24 C1.34 24.33 0.68 24.66 0 25 C0 22.69 0 20.38 0 18 C-1.97536745 18.34786708 -1.97536745 18.34786708 -4 19 C-4.33 19.66 -4.66 20.32 -5 21 C-6.98008054 19.01991946 -6.31219007 15.13233154 -6.42578125 12.4453125 C-6.79169117 9.83452768 -6.79169117 9.83452768 -9.04296875 8.1796875 C-9.68878906 7.79039063 -10.33460937 7.40109375 -11 7 C-10.67 6.34 -10.34 5.68 -10 5 C-9.34 5 -8.68 5 -8 5 C-8.33 3.68 -8.66 2.36 -9 1 C-13.29 0.67 -17.58 0.34 -22 0 C-22 -0.33 -22 -0.66 -22 -1 C-19.45886142 -1.22333047 -16.91827416 -1.42902091 -14.375 -1.625 C-13.66214844 -1.68945312 -12.94929688 -1.75390625 -12.21484375 -1.8203125 C-7.73859601 -2.14884444 -4.06706733 -2.18620136 0 0 Z " fill="#1650EA" transform="translate(33,3)"/>
<path d="M0 0 C0 0.66 0 1.32 0 2 C-0.99 2 -1.98 2 -3 2 C-3.02899599 5.77081722 -3.04679729 9.54160583 -3.0625 13.3125 C-3.07087891 14.38435547 -3.07925781 15.45621094 -3.08789062 16.56054688 C-3.09111328 17.58857422 -3.09433594 18.61660156 -3.09765625 19.67578125 C-3.10289307 20.62364502 -3.10812988 21.57150879 -3.11352539 22.5480957 C-3.10498854 25.13838681 -3.10498854 25.13838681 -2 28 C0.72307331 29.01466015 3.44197161 29.17209858 6.328125 29.31640625 C7.12734375 29.35830078 7.9265625 29.40019531 8.75 29.44335938 C9.575 29.48267578 10.4 29.52199219 11.25 29.5625 C12.09046875 29.60568359 12.9309375 29.64886719 13.796875 29.69335938 C15.86440671 29.79908543 17.93218281 29.90001295 20 30 C17.35253906 32.97314453 17.35253906 32.97314453 14.1796875 33.21484375 C0.29679056 32.04973065 0.29679056 32.04973065 -5 28 C-6.48955322 23.45310619 -6.26177056 18.73474757 -6.3125 14 C-6.34150391 13.09765625 -6.37050781 12.1953125 -6.40039062 11.265625 C-6.46406971 4.64299969 -6.46406971 4.64299969 -4.10546875 1.375 C-2 0 -2 0 0 0 Z " fill="#2356D0" transform="translate(11,3)"/>
<path d="M0 0 C0.33 0.99 0.66 1.98 1 3 C-0.98 3 -2.96 3 -5 3 C-5 4.32 -5 5.64 -5 7 C-4.01 7.33 -3.02 7.66 -2 8 C-2 7.34 -2 6.68 -2 6 C-2.66 6 -3.32 6 -4 6 C-4 5.34 -4 4.68 -4 4 C-2.35 4 -0.7 4 1 4 C0.125 8.875 0.125 8.875 -1 10 C-3.9375 10.1875 -3.9375 10.1875 -7 10 C-9 8 -9 8 -9.375 5.0625 C-9 2 -9 2 -7.3125 0.0625 C-4.43497994 -1.25960381 -2.97788882 -0.90991047 0 0 Z " fill="#C7E1FD" transform="translate(25,13)"/>
<path d="M0 0 C2.97 0.33 5.94 0.66 9 1 C9 4.3 9 7.6 9 11 C8.34 10.67 7.68 10.34 7 10 C7.33 8.68 7.66 7.36 8 6 C6.35 6 4.7 6 3 6 C3 6.66 3 7.32 3 8 C3.66 8 4.32 8 5 8 C5 8.66 5 9.32 5 10 C3.68 9.67 2.36 9.34 1 9 C1.33 7.35 1.66 5.7 2 4 C3.65 4 5.3 4 7 4 C7 3.34 7 2.68 7 2 C4.69 2 2.38 2 0 2 C0 1.34 0 0.68 0 0 Z " fill="#2658DA" transform="translate(18,11)"/>
<path d="M0 0 C3.875 3.75 3.875 3.75 5 6 C5.02172852 7.87939453 5.02172852 7.87939453 4.87890625 10.1328125 C4.83056641 10.93847656 4.78222656 11.74414062 4.73242188 12.57421875 C4.64831055 13.83685547 4.64831055 13.83685547 4.5625 15.125 C4.51029297 15.97449219 4.45808594 16.82398437 4.40429688 17.69921875 C4.27448622 19.79979124 4.1378826 21.89994191 4 24 C3.67 24 3.34 24 3 24 C3 18.06 3 12.12 3 6 C2.34 6 1.68 6 1 6 C0.67 4.02 0.34 2.04 0 0 Z " fill="#1D42AD" transform="translate(33,3)"/>
<path d="M0 0 C6.27 0 12.54 0 19 0 C16 3 16 3 12.96875 3.14453125 C11.8240625 3.03496094 10.679375 2.92539062 9.5 2.8125 C8.3553125 2.71582031 7.210625 2.61914062 6.03125 2.51953125 C3 2 3 2 0 0 Z " fill="#173A98" transform="translate(12,33)"/>
<path d="M0 0 C0.33 0 0.66 0 1 0 C1.05802698 3.43742918 1.09360486 6.87473253 1.125 10.3125 C1.15013672 11.77719727 1.15013672 11.77719727 1.17578125 13.27148438 C1.18222656 14.20927734 1.18867187 15.14707031 1.1953125 16.11328125 C1.20578613 16.97735596 1.21625977 17.84143066 1.22705078 18.73168945 C1 21 1 21 -1 24 C-1.66 24 -2.32 24 -3 24 C-2.68289062 23.20335938 -2.36578125 22.40671875 -2.0390625 21.5859375 C-0.7735881 17.21862361 -0.5480985 13.14719822 -0.375 8.625 C-0.33632813 7.79355469 -0.29765625 6.96210938 -0.2578125 6.10546875 C-0.16425754 4.07064844 -0.08107287 2.03535584 0 0 Z " fill="#1949D9" transform="translate(35,9)"/>
<path d="M0 0 C2.97 0.495 2.97 0.495 6 1 C6 1.33 6 1.66 6 2 C4.35 2 2.7 2 1 2 C1 2.66 1 3.32 1 4 C1.66 4 2.32 4 3 4 C3 4.66 3 5.32 3 6 C1.68 5.67 0.36 5.34 -1 5 C-0.67 3.35 -0.34 1.7 0 0 Z " fill="#4567BB" transform="translate(20,15)"/>
<path d="M0 0 C1.5 1.375 1.5 1.375 3 3 C3 3.66 3 4.32 3 5 C4.32 5.33 5.64 5.66 7 6 C5.1875 6.625 5.1875 6.625 3 7 C2.01 6.34 1.02 5.68 0 5 C-0.1875 2.375 -0.1875 2.375 0 0 Z " fill="#294DDC" transform="translate(6,26)"/>
<path d="" fill="#FF0000" transform="translate(0,0)"/>
<path d="" fill="#000000" transform="translate(0,0)"/>
<path d="" fill="#000000" transform="translate(0,0)"/>
<path d="" fill="#000000" transform="translate(0,0)"/>
<path d="" fill="#000000" transform="translate(0,0)"/>
<path d="" fill="#FE0000" transform="translate(0,0)"/>
<path d="" fill="#000000" transform="translate(0,0)"/>
<path d="" fill="#000000" transform="translate(0,0)"/>
<path d="" fill="#000000" transform="translate(0,0)"/>
<path d="" fill="#000000" transform="translate(0,0)"/>
<path d="" fill="#FF0000" transform="translate(0,0)"/>
<path d="" fill="#FE0000" transform="translate(0,0)"/>
<path d="" fill="#000000" transform="translate(0,0)"/>
<path d="" fill="#000000" transform="translate(0,0)"/>
<path d="" fill="#000000" transform="translate(0,0)"/>
<path d="" fill="#000000" transform="translate(0,0)"/>
<path d="" fill="#010000" transform="translate(0,0)"/>
<path d="" fill="#FF0000" transform="translate(0,0)"/>
<path d="" fill="#000000" transform="translate(0,0)"/>
<path d="" fill="#000000" transform="translate(0,0)"/>
<path d="" fill="#000000" transform="translate(0,0)"/>
<path d="" fill="#FF0000" transform="translate(0,0)"/>
<path d="" fill="#000000" transform="translate(0,0)"/>
<path d="" fill="#010000" transform="translate(0,0)"/>
<path d="" fill="#010000" transform="translate(0,0)"/>
<path d="" fill="#000000" transform="translate(0,0)"/>
<path d="" fill="#000000" transform="translate(0,0)"/>
</svg>
